<svg xmlns="http://www.w3.org/2000/svg" viewBox="0 0 300 300" fill="#fff">
  <path class="cls-1" d="m84.54,124c-1.98,8.71,8.45,18.31,3.09,22.61-11.39,10.05-13.01,3.71-18.56-7.29-7.78,9.72-17.56,14.58-29.33,14.58-44.45-1.5-35.85-74.99,28.24-54.74,2.07-24.79-7.35-33.41-31.73-28.11-9.75,1.04-19.78,12.92-17.96-3.17.12-7.78,9.59-8.1,16.06-10.67,12.87-3.86,33.94-2.46,41.71,6.55,12.25,10.38,7.36,44.91,8.28,60.23h.2Zm-40.51,16.06c16.38.48,26.39-12.97,24.15-29.06-46.81-13.99-46.43,29.1-24.15,29.06Zm80.12,11.41c-7.64,5.87-26.63-84.47-29.34-86.86-4.15-9.86,6-6.24,11.28-6.87,8.69-4.55,19.77,71.85,22.65,75.13,2.02-4.6,14.05-71.46,17.46-74.07,1.83-1.78,9.48-.84,11.98-1.06,4.01.05,4.96,1.23,5.89,5.18,0,0,15.76,70.8,15.76,70.8,2.97-3.56,14.42-80.22,23.15-75.98,3.04.77,14.03-2.5,11.58,4.33-.1.63-.3,1.48-.7,2.64l-24.05,81.69c-.85,7.41-9.54,4.7-14.47,5.18-8.72,4.93-18.53-70.25-21.35-73.44-.99,1.64-15.31,73.64-17.26,72.28-1.86,1.88-10.02.77-12.57,1.06Zm128.21,2.85c-9.7-.85-28.39-1.26-30.53-12.05.33-2.18-1.16-8.9,2.3-8.67,41.71,19.17,62.84-9.79,34.12-20.08-9.43-3.16-25.59-7.07-30.43-15.53-14.85-20.15,5.08-45.02,27.84-43.01,8.71.89,25.05.8,26.94,11.3.15,4.79.67,11.11-6.09,7.08-29.56-14.4-54.44,10.09-23.15,21.56,8.92,3.08,25.09,7.15,29.63,14.9,14.74,21.45-6.98,46.61-30.63,44.49Z"/>
  <path class="cls-1" d="m271.23,205.69c-32.83,25.68-80.52,39.31-121.53,39.31-57.47,0-109.26-22.51-148.37-59.92-3.09-2.96-.3-6.97,3.39-4.65,42.31,26,94.49,41.74,148.47,41.74,36.42,0,76.43-8.03,113.25-24.52,5.49-2.64,10.18,3.8,4.79,8.03Z"/>
  <path class="cls-1" d="m284.89,189.2c-4.19-5.71-27.74-2.75-38.41-1.37-3.19.42-3.69-2.54-.8-4.76,18.76-13.95,49.59-9.93,53.18-5.28,3.59,4.76-1,37.41-18.56,53.05-2.69,2.43-5.29,1.16-4.09-2.01,3.99-10.46,12.87-34.03,8.68-39.63Z"/>
</svg>