<svg xmlns="http://www.w3.org/2000/svg" viewBox="0 0 64 64">
  <path fill="#fff" d="m32,0c42.67,1.09,42.66,62.92,0,64-42.67-1.09-42.66-62.92,0-64Zm9.37,38.14c-3.29-.09-6.25-.35-9.1-1.14-.16-.05-.33.01-.42.15-.09.14-.1.33.02.44.48.48,1.96,1.44,3.1,1.87-1.76,1.77-2.13,5.33-1.84,7.26.58,4.92,5.41,9.33,10.86,9.07,10.59-.33,17.24-12.84,17.42-22.92.48-16.05-12.3-29.47-28.53-29.94C6.57,1.8-7.5,34.62,11.16,52.52c.35.34.92-.01.78-.47-5.42-16.59,6.29-42.03,22.1-38.91,4.76,1.65,7.58,4.63,13.49,6.97,5.91,2.34,6.74,6.66,5.33,11.13s-6.5,6.92-11.48,6.9Zm-11.22-22.79c-3.72.68-4.59,7.87.12,7.88,4.77-.05,4.19-8.23-.12-7.88Z"/>
</svg>