<?xml version="1.0" encoding="UTF-8"?>
<svg width="64" height="64" xmlns="http://www.w3.org/2000/svg" viewBox="0 0 64 64" fill="none" stroke-width="4">
  <g stroke="#ff0">
    <path stroke-width="7" d="m26.5,50.17c-8.06-2.33-13.95-9.77-13.95-18.57,0-10.68,8.66-19.33,19.33-19.33,5.19,0,9.9,2.04,13.37,5.37"/>
    <line x1="19.07" y1="60.21" x2="21.53" y2="55.01"/>
    <line x1="8.53" y1="52.56" x2="12.76" y2="48.61"/>
    <line x1="2.01" y1="41.27" x2="7.49" y2="39.38"/>
    <line x1=".65" y1="28.31" x2="6.42" y2="28.96"/>
    <line x1="4.68" y1="15.92" x2="9.77" y2="18.69"/>
    <line x1="13.39" y1="6.24" x2="16.78" y2="10.92"/>
    <line x1="25.3" y1=".94" x2="26.55" y2="6.55"/>
    <line x1="38.33" y1=".94" x2="37.22" y2="6.55"/>
    <line x1="50.23" y1="6.24" x2="46.98" y2="10.92"/>
  </g>
  <rect stroke="gray" x="32" y="24.5" width="29" height="37" rx="4.03" ry="4.03"/>
  <g stroke="#fff" stroke-width="3">
    <path d="m47.44,41.99c2.76,0,5-2.24,5-5s-2.24-5-5-5h-6.88"/>
    <path d="m40.56,41.99h6.88c3.31,0,6,2.69,6,6s-2.69,6-6,6h-6.88"/>
    <line x1="40.56" y1="30.53" x2="40.56" y2="55.47"/>
  </g>
</svg>