<svg xmlns="http://www.w3.org/2000/svg" viewBox="0 0 256 256" fill="#fff">
<path d="M112,11c-16,6-22,22-21,52c1,22-1,29-11,44c-7,9-16,26-20,37C53,164,53,166,63,173C79,186,96,213,96,225c0,12-11,13-42,5c-15-4-18-7-18-17c0-7,5-17,11-23l11-9l-15,7c-12,5-15,10-15,24c0,15,1,17,29,26c27,9,30,9,47,1c17-8,50-6,56,3c5,8,18,4,43-11c13-8,25-16,25-18s-5-7-12-14c-9-8-12-9-12-4c0,4,3,8,7,10c4,2,7,5,7,7c0,6-45,27-50,23c-6-4-6-54,0-54c2,0,4,2,4,5c0,9,20,5,27-6c10-15,3-44-17-73c-10-14-17-31-20-49c-2-14-5-29-7-32C150,13,125,6,112,11z M146,59c0,3-1,3-3-1c-3-7-16-8-16-0c0,3,3,8,7,11c8,6,32,67,34,85c1,7-1,16-4,20c-3,4-6,12-7,20c-1,7-7,15-15,19c-17,8-41,4-37-7c1-4-3-12-12-21c-18-15-18-16-4-59c10-33,16-41,21-28c1,5,5,5,15-0c20-10,17-19-4-16c-13,1-17,0-17-6c0-4,2-8,5-8c3,0,10-5,16-12c8-9,12-11,17-7C144,50,147,56,146,59z"/>
</svg>