<svg xmlns="http://www.w3.org/2000/svg" viewBox="0 0 256 256" fill="#fff">
  <path d="M61,130c0-1-0-1-1-2l-22-13c-0-0-0-0-1-0h-0c-0,0-0,0-1,0l-22,13c-0,0-1,1-1,2l0,35c0,0,0,0,0,1c0,0,0,0,1,0l13-7c0-0,1-1,1-2v-16c0-1,0-1,1-2l5-3c0-0,0-0,1-0c0,0,0,0,1,0l5,3c0,0,1,1,1,2v16c0,1,0,1,1,2l13,7c0,0,1,0,1,0c0-0,0-0,0-1L61,130"/>
  <path d="M167,149c0,0-0,0-0,0l-7,4c-0,0-0,0-0,0l-7-4c-0-0-0-0-0-0v-9c0-0,0-0,0-0l7-4c0-0,0-0,0,0l7,4c0,0,0,0,0,0V149 M169,82c-0-0-0-0-1,0c-0,0-0,0-0,1v34c0,0-0,0-0,0c-0,0-0,0-1,0l-5-3c-0-0-1-0-2,0l-22,13c-0,0-1,1-1,2v26c0,1,0,1,1,2l22,13c0,0,1,0,2,0l22-13c0-0,1-1,1-2V92c0-1-0-1-1-2L169,82z"/>
  <path d="M244,140c0-0,1-1,1-2v-6c0-1-0-1-1-2L222,115c-0-0-1-0-2,0l-22,13c-0,0-1,1-1,2v26c0,1,0,1,1,2l22,12c0,0,1,0,2,0l13-7c0-0,0-0,0-1c0-0-0-1-0-1l-22-13c-0-0-0-0-0-1v-8c0-0,0-0,0-1l7-4c0-0,0-0,1,0l7,4c0,0,0,0,0,1v6c0,0,0,0,0,1c0,0,0,0,1,0L244,140"/>
  <path d="M95,115c0-0,1-0,2,0l22,13c0,0,1,1,1,2v26c0,1-0,1-1,2l-22,13c-0,0-1,0-2,0l-22-13c-0-0-1-1-1-2v-26c0-1,0-1,1-2L95,115"/>
  <path d="M220,151l-5-3v-6l5-3l5,3v6L220,151z"/>
</svg>
