<svg xmlns="http://www.w3.org/2000/svg" viewBox="0 0 256 256" fill="none" stroke="#000">
  <path fill="#fff" d="m127.67,19.53c-44.43,0-80.44,35.98-80.44,80.36,0,.87.02,1.73.04,2.59v77.23h0v7.87h0s0,19.41,0,19.41c0,.15,0,.29,0,.44s0,.3.02.45v.36h0c.43,14.91,12.65,26.87,27.69,26.87s27.39-11.96,27.82-26.87v-28.51h22.98c.62.02,1.25.02,1.88.02,44.43,0,80.44-35.48,80.44-79.86S172.09,19.53,127.67,19.53h0Zm0,104.73h-24.84v-24.36c0-13.65,11.18-24.73,24.84-24.73s24.75,11.07,24.75,24.73-11.09,24.37-24.75,24.37h0Z"/>
  <path d="m102.82,179.73h-27.78s-20.43.02-27.47,23.47"/>
  <path d="m102.81,124.28s-49.9,0-55.54,55.45"/>
</svg>