<svg xmlns="http://www.w3.org/2000/svg" viewBox="0 0 256 256">
    <g fill="none" stroke="#fff" stroke-width="8px">
      <path d="m98.02,27.07s-29.94-9.71-40.25-9.26c-7.47.33-22.66,4.51-28.44,9.26-6.06,4.97-13.62,19.7-15.32,27.35-2.1,9.51,1.18,29.26,2.92,38.84,2.41,13.28,9.94,39.36,15.13,51.82,3.69,8.88,10.32,28.78,18.6,33.66,2.36,1.39,8.44,1.1,10.94,0,9.08-3.99,26.8-29.23,26.8-29.23"/>
      <path d="m148.57,20.47s19.84-7.5,26.8-7.63c8.68-.15,25.86,4.64,33.71,8.33,5.37,2.52,15.61,9.29,19.08,14.1,2.19,3.03,4.19,10.51,4.64,14.22.79,6.48-.64,19.64-1.91,26.05-2,10.08-8.67,29.66-12.85,39.05-4.58,10.29-23.66,32-23.66,32"/>
      <path d="m107.55,153.7c2.66.45,8.36.25,10.67,1.64,2.01,1.22,4.86,5.33,5.6,7.56,1.91,5.8-.22,18.33,0,24.44.33,9.11.42,27.52,2.61,36.38.86,3.48,3.44,10.38,5.74,13.13,1.9,2.27,7.01,5.71,9.85,6.56,2.62.79,8.26.55,10.94,0,3.93-.8,11.5-3.96,14.77-6.29,2.93-2.09,8.06-7.44,9.66-10.67,3.98-8.04,5.25-26.4,6.54-35.28,1.11-7.62-.19-23.73,3.22-30.63,1.1-2.23,6.22-4.57,7.25-6.84,1.38-3.05.07-10.07.48-13.4.55-4.44,3.45-13.04,3.76-17.5.39-5.61-1.6-16.81-1.64-22.43-.04-6.85,2.55-20.56,1.64-27.35-.62-4.65-3.77-13.66-6.02-17.78-3.42-6.28-12.24-17.9-17.78-22.43-5.28-4.32-17.88-10.14-24.34-12.34-5.2-1.77-16.11-4.02-21.61-4.07-4.51-.04-17.77,3.01-17.77,3.01,0,0-10.25,4.02-13.09,6.29-3.54,2.83-9.05,10.26-11.26,14.22-2.73,4.89-6.31,15.62-7.63,21.06s-2.58,16.08-2.77,21.49c-.16,4.61,1.26,13.82,1.09,18.44-.17,4.69-2.45,13.91-2.46,18.6,0,3.24.65,9.77,1.64,12.85.93,2.88,3.73,8.41,5.74,10.67,2.38,2.68,8.45,6.82,11.76,8.21,3.14,1.31,10.04,1.89,13.4,2.46Z"/>
      <path d="m78.01,81.44s12.64-6.4,17.23-7.33c2.88-.59,8.94-.84,11.76,0s8.27,4.01,9.91,6.48c2.48,3.75,2.77,13.22,3.16,17.7.44,5.01.87,15.17,0,20.13-.86,4.91-5.14,14.03-6.78,18.74-1.91,5.48-4.81,16.81-7.38,22.01-1.03,2.07-3.34,6.28-5.2,7.66-3.11,2.31-11.23,3.09-14.77,4.65-1.8.79-6.56,1.98-6.81,3.93-.27,2.09,4.08,5.02,5.99,5.91,2.49,1.17,8.19,1.14,10.94,1.09,3.17-.05,9.62-.51,12.58-1.64,4.29-1.64,15.17-10.39,15.17-10.39"/>
      <path d="m198.63,73.01s-13.85-.97-18.32,0c-2.18.47-6.59,2.05-8.12,3.67s-2.81,5.96-3.1,8.11c-.57,4.21.53,12.83,1.64,16.93,1.32,4.87,6.16,13.84,8.48,18.32,3.5,6.79,10.98,20.15,15.18,26.53,1.78,2.71,4.95,8.81,7.8,10.36s9.22,1.02,12.31.92c4.68-.14,15.61-6.18,18.55-2.54.73.91-1,3.38-1.59,4.38-1.48,2.47-5.17,7.14-7.66,8.59-3.25,1.89-10.96,2.77-14.7,3.17-5.53.59-24.22.26-24.22.26"/>
    </g>
    <path fill="#fff" d="m110.97,87.21c-1.32,5.88-12.63,5.09-12.93-1.8.97-4.42,13.33-2.46,12.93,1.8Z"/>
    <path fill="#fff" d="m190.79,81.28c.04,5.64-10.65,7.01-11.78,1.64-.46-3.52,11.27-5.15,11.78-1.64Z"/>
</svg>
