<svg xmlns="http://www.w3.org/2000/svg" viewBox="0 0 256 256" fill="none" stroke="#fff" stroke-width="10">
  <path fill="#fff" d="M108,127c0,10,8,19,19,19c10,0,19-8,19-19c0-10-8-19-19-19C116,108,108,116,108,127L108,127z"/>
  <path d="M127,87c26,0,51,3,69,10c22,7,36,19,36,29c0,11-14,23-38,31c-18,6-42,9-67,9c-25,0-50-2-68-9C36,151,22,138,22,127c0-10,13-22,35-29C75,91,101,87,127,87z"/>
  <path d="M92,107c13-22,28-42,43-55c17-15,34-21,44-16c9,5,13,24,7,49c-3,18-13,41-25,62c-12,22-27,42-42,54c-18,16-36,22-45,16c-9-5-12-22-8-45C70,154,79,131,92,107z"/>
  <path d="M92,148c-13-22-22-46-26-65c-4-23-1-40,7-46c9-5,27,0,46,17c14,12,29,31,41,53c12,22,22,44,26,63c4,24,0,42-8,47c-9,5-25-0-43-15C122,191,106,171,92,148z"/>
</svg>
