<svg xmlns="http://www.w3.org/2000/svg" viewBox="0 0 256 256" fill="#fff">
<path d="M10,128v88h118h118v-88V40H128H10V128z M226,128v68H128H29V128V59H128h98V128z"/>
<path d="M67,112c-6,8-12,15-12,16c0,0,5,7,12,15c8,10,12,15,12,14c4-3,14-11,14-11c0-0-3-4-7-9c-4-5-7-9-7-9c0-0,2-3,6-7c3-4,6-8,7-9l1-1l-7-5c-4-3-7-5-7-6C79,96,75,101,67,112z"/>
<path d="M168,102c-4,3-7,6-7,6c0,0,3,4,7,9c4,4,7,9,7,9c0,0-3,4-7,9c-4,5-7,9-7,9c0,0,13,11,14,12c0,0,24-29,25-30c0-0-21-28-24-31C176,96,174,97,168,102z"/>
</svg>
