<svg xmlns="http://www.w3.org/2000/svg" viewBox="0 0 65 65.22">
  <g stroke="#000" fill="#fff">
    <path d="m37.36,17.32s6.57-5.96,13.45-5.74c.94.03-2.91,2.31-2.91,2.31,0,0,8.55-1.84,13.22,2.37s3.08,11.26,3.08,11.26c0,0-4.5,11.06-5.92,10.58-10.1-3.44-5.24-12.31-5.24-12.31,0,0-3.84.68-4.78,7.67-.71,5.29,8.4,12.04,4.01,20.99-5.58,11.39-17.92,10.22-17.92,10.22l-7.68-28.31,10.68-19.05Z"/>
    <path d="m9.5,52.35c-1.07,8.23,9.6,12.33,9.6,12.33h15.27c12.57-13.03-9.26-23.6-3.11-25.61,7.48-2.44,7.97-6.96,7.97-6.96l.1-4.19-3.05-1.13s-1.31-5.89-.32-7.15c8.89-11.37-2.12-18.92-2.12-18.92l-6.13,10.53-12.61-3.59S12.61.08,11.08,1.24c-7.72,5.91-4.29,15.2-4.29,15.2,0,0-3.63,3.48-3.18,10.35.05.74-3.83.21-3.01,1.64,1.09,1.88-.32,2.59.14,3.5,2.98,5.91,12.05,8.96,12.05,8.96l-2.75,5.92s-2.18.17-2.48,2.59c-.27,2.18,1.92,2.95,1.92,2.95Z"/>
    <path d="m13.17,60.98c-3.07,1.07-2.89,3.7-2.89,3.7h9.68l-6.79-3.7Z"/>
  </g>
  <g stroke="#000" fill="none">
    <path d="m6.8,16.44s3.43-4.13,8.66-4.3c0,0-2.78-.2-.7-5.4"/>
    <path d="m34.62,3.69s1.44,7.5-1.69,13.72"/>
    <path d="m33.02,50.19s-6.44-2.6-8.91,2.71c-1.93,4.16,1.08,8.3,1.08,8.3"/>
    <path d="m31.51,62.16s-2.13-1.76-5-1.32-3.73,3.85-3.73,3.85"/>
    <path d="m26.31,45.81c-2.33,2.12-6.73,1.89-6.73,1.89,0,0-1.89.62-1.89,2.03,0,1.24,1.11,2.01,1.11,2.01l5.32,1.16"/>
    <path d="m10.05,46.81s2.98-.1,2.75,2.95c-.2,2.68-3.31,2.59-3.31,2.59"/>
    <path d="m11.84,29.86s.92-1.04,2.37-1.04,2.29.96,2.29.96c0,0-.85,3.02-1.97,3.02-1.19,0-2.69-2.94-2.69-2.94Z"/>
    <path d="m10.97,32.53c1.6,2.62,3.58.59,3.58.59,0,0,2.23,2.11,4-.66"/>
  </g>
  <path fill="#000" d="m9.5,20.93c-1.05-.82-3.56.58-3.98,4.48s2.96,6.43,3.98,5.4c1.96-1.99,3.04-7.5,0-9.87Z"/>
  <path fill="#000" d="m25.19,20.56c-2.6,0-5.22,1.62-5.22,5.4,0,2.84,2.25,5.4,5.22,5.4,3.53,0,5.31-2.74,5.31-5.4,0-3.16-2.27-5.4-5.31-5.4Z"/>
  <circle fill="#fff" cx="25.19" cy="24.85" r="1.5"/>
  <circle fill="#fff" cx="8.42" cy="24.54" r="1.5"/>
</svg>