<svg xmlns="http://www.w3.org/2000/svg" viewBox="0 0 64 64" fill="#fff">
<path d="m24.76,55.62c-.23-.09-.4-.06-.59.1-1.29,1.13-2.8,1.82-4.51,1.98-2.33.22-4.42-.37-6.23-1.91-1.51-1.28-2.47-2.89-2.8-4.85-.08-.46-.08-.93-.1-1.28.06-1.3.18-2.45.66-3.57.69-1.57,1.76-2.77,3.2-3.67,2.61-1.64,5.34-1.71,8.08-.4,1.55.74,2.77,1.92,3.59,3.45.37.7.7,1.42.82,2.22.03.2.13.29.33.37l8.45,3.11c.2.08.36.05.56-.04l12.17-4.4c1.47-.43,3.02-.18,4.12,1.05.75.84,1.15,1.82,1.05,2.94-.17,1.71-1.1,2.88-2.69,3.49l-14.72,5.33c-.17.05-.38.05-.54,0l-10.86-3.95h-.01Zm-6.32-2.1c2.16.15,4.27-1.64,4.23-4.09-.01-1.11-.37-2.1-1.13-2.88-1.1-1.14-2.52-1.36-4.01-1.13-.68.1-1.21.52-1.71.96-.83.72-1.28,1.65-1.36,2.74-.17,2.28,1.68,4.4,3.98,4.39h0Z"/>
<path d="m5.83,23.22c.04-.18.17-.38.31-.51l8.66-7.26c.26-.22.41-.38.35-.78-.5-2.88.37-5.36,2.39-7.4,1.52-1.55,3.44-2.28,5.89-2.38,2.26.06,4.45.96,6.14,2.92,1.36,1.56,2.06,3.41,2.01,5.47-.09,3.12-1.5,5.52-4.21,7.12-1.82,1.07-3.76,1.29-5.81.92-.27-.05-.55-.12-.81-.23-.26-.12-.41-.05-.6.12l-6.56,5.51c-.29.24-.47.51-.54.9l-2.19,12.48c-.35,1.94-2.1,3.26-4.05,3.26-2.21,0-4.23-2.38-3.73-4.73l2.74-15.41h.01Zm13.5-10.14c.14,2.37,1.78,4.12,4.17,4.1,2.24,0,4.03-1.84,4.04-4.13,0-1.92-1.48-4.12-4.18-4.1-2.46.01-4.14,2.2-4.03,4.13Z"/>
<path d="m55.05,27.44c.04.2.17.23.31.28,1.19.42,2.24,1.06,3.12,1.94,1.62,1.64,2.52,3.61,2.52,6.3.05,2.94-2.22,6.3-5.6,7.44-4.85,1.62-9.94-1.37-10.8-6.34-.42-2.39.12-4.59,1.56-6.55.31-.41.69-.77,1.06-1.13.15-.14.18-.28.14-.49-.52-2.84-1.05-5.68-1.53-8.53-.08-.42-.24-.7-.55-.96l-9.53-7.99c-.69-.59-1.19-1.29-1.42-2.19-.38-1.5.24-3.16,1.59-4.12,1.38-.98,3.21-.98,4.58.05l12.25,10.23c.19.17.29.33.35.59l1.99,11.44h-.03Zm1.79,8.31c.03-1.98-1.75-4.18-4.12-4.14-2.28.04-4.09,1.84-4.07,4.18.03,2.31,1.75,4.04,4.09,4.07,2.47.03,4.07-2.08,4.09-4.1Z"/>
</svg>
