<svg viewBox="0 0 410 404" xmlns="http://www.w3.org/2000/svg">
<path fill="#fff" d="M399 59L215 388C211 395 202 395 198 388L10 59C6 52 12 43 21 44L205 77C206 77 207 77 208 77L389 44C397 43 403 52 399 59Z"/>
<path fill="#888" d="M292 1L156 28C154 28 152 30 152 32L144 174C144 177 147 180 150 179L188 170C191 169 195 173 194 176L183 231C182 235 185 238 189 237L212 230C216 229 220 232 219 236L201 322C200 328 207 331 210 326L212 323L323 102C325 98 322 94 318 94L279 102C275 103 272 99 273 96L298 7C299 4 296 0 292 1Z"/>
</svg>